<svg viewBox="0 0 300 400" xmlns="http://www.w3.org/2000/svg">
  <defs>
    <linearGradient id="bg8" x1="0" y1="0" x2="0" y2="1">
      <stop offset="0%" stop-color="#EDEAE2"/>
      <stop offset="100%" stop-color="#DCD6C7"/>
    </linearGradient>
    <radialGradient id="vig8" cx="50%" cy="38%" r="75%">
      <stop offset="60%" stop-color="#000000" stop-opacity="0"/>
      <stop offset="100%" stop-color="#000000" stop-opacity="0.10"/>
    </radialGradient>
  </defs>

  <rect width="300" height="400" fill="url(#bg8)"/>

  <ellipse cx="150.0" cy="163.6" rx="62.4" ry="78.0" fill="#1F1B18" opacity="0.95"/>

  <!-- shoulders / torso -->
  <path d="M 32.0 420
           L 32.0 225.44
           Q 32.0 185.44 85.1 179.44
           L 214.9 179.44
           Q 268.0 185.44 268.0 225.44
           L 268.0 420 Z" fill="#3F3F46"/>

  
        <path d="M 124.0 189.44 Q 150.0 215.44 176.0 189.44" stroke="#58585f" stroke-width="6" fill="none" opacity="0.7"/>

  <!-- neck -->
  <rect x="132.0" y="176.6" width="36" height="40" fill="#C68A5C"/>

  <!-- head -->
  <ellipse cx="150.0" cy="148" rx="44.72" ry="52" fill="#C68A5C"/>

  <!-- simple facial hints -->
  <ellipse cx="134.0" cy="144" rx="4.5" ry="3" fill="#2b2018" opacity="0.55"/>
  <ellipse cx="166.0" cy="144" rx="4.5" ry="3" fill="#2b2018" opacity="0.55"/>
  <path d="M 141.0 170 Q 150.0 175 159.0 170" stroke="#2b2018" stroke-width="2.5" fill="none" opacity="0.5" stroke-linecap="round"/>

  

  <!-- hair front -->
  <path d="M 95.4 113.75999999999999 A 54.6 57.2 0 0 1 204.6 113.75999999999999 L 209.8 204.15999999999997 L 178.6 206.76 L 181.2 131.35999999999999 L 118.8 131.35999999999999 L 121.4 206.76 L 90.2 204.15999999999997 Z" fill="#1F1B18"/>

  <rect width="300" height="400" fill="url(#vig8)"/>

  <!-- placeholder tag -->
  <rect x="0" y="370" width="300" height="30" fill="#000000" opacity="0.28"/>
  <text x="150.0" y="389" text-anchor="middle" font-family="Arial, sans-serif" font-size="12" letter-spacing="2" fill="#ffffff" opacity="0.9">PHOTO PLACEHOLDER</text>
</svg>